<?xml version="1.0" standalone="no"?>
<!DOCTYPE svg PUBLIC "-//W3C//DTD SVG 20010904//EN"
 "http://www.w3.org/TR/2001/REC-SVG-20010904/DTD/svg10.dtd">
<svg version="1.0" xmlns="http://www.w3.org/2000/svg"
 width="1280.000000pt" height="827.000000pt" viewBox="0 0 1280.000000 827.000000"
 preserveAspectRatio="xMidYMid meet">

<g transform="translate(0.000000,827.000000) scale(0.100000,-0.100000)"
fill="#000000" stroke="none">
<path d="M6135 4877 c-11 -6 -15 -25 -15 -68 l0 -59 323 2 322 3 3 34 c2 19 1
50 -3 69 l-6 33 -305 -2 c-167 -2 -311 -7 -319 -12z"/>
<path d="M2553 4441 c-11 -17 -9 -20 17 -26 17 -4 30 -11 30 -16 0 -13 -14
-11 -28 3 -9 9 -12 9 -12 -1 0 -7 -5 -9 -11 -6 -13 9 -38 -23 -39 -49 0 -12 5
-16 15 -12 8 3 19 -2 24 -12 7 -12 10 -13 11 -3 0 7 15 28 33 45 19 17 32 37
29 44 -2 6 1 12 6 12 6 0 12 -6 15 -12 3 -10 9 -10 28 -1 13 6 34 15 47 18 12
4 20 11 17 16 -4 5 211 9 552 8 381 -1 539 -4 498 -11 -33 -5 -76 -7 -95 -4
-28 4 -31 3 -17 -5 12 -7 45 -8 95 -2 86 9 93 9 142 1 30 -5 36 -3 37 12 2 18
-23 19 -690 20 -676 0 -692 0 -704 -19z m162 -1 c4 -6 -7 -10 -24 -10 -17 0
-31 5 -31 10 0 6 11 10 24 10 14 0 28 -4 31 -10z m-145 -75 c0 -8 -9 -15 -20
-15 -20 0 -26 11 -13 23 12 13 33 7 33 -8z"/>
<path d="M3967 4440 c6 -21 23 -28 23 -9 0 6 19 9 48 8 26 -1 52 0 58 2 5 3
25 6 44 8 71 6 40 11 -67 11 -106 0 -111 -1 -106 -20z"/>
<path d="M4228 4453 c7 -3 16 -2 19 1 4 3 -2 6 -13 5 -11 0 -14 -3 -6 -6z"/>
<path d="M2794 4429 c-3 -5 34 -9 82 -9 48 0 85 2 83 4 -8 9 -160 13 -165 5z"/>
<path d="M3205 4430 c-4 -7 50 -10 155 -10 105 0 159 3 155 10 -4 6 -67 10
-155 10 -88 0 -151 -4 -155 -10z"/>
<path d="M2490 4291 c0 -6 5 -13 10 -16 6 -3 10 1 10 9 0 9 -4 16 -10 16 -5 0
-10 -4 -10 -9z"/>
<path d="M2462 4240 c0 -19 2 -27 5 -17 2 9 2 25 0 35 -3 9 -5 1 -5 -18z"/>
<path d="M2523 4251 c-9 -14 -9 -22 -2 -27 15 -9 21 1 17 26 -3 21 -3 21 -15
1z"/>
<path d="M2483 4224 c-3 -8 -1 -20 6 -27 8 -8 11 -4 11 16 0 30 -7 35 -17 11z"/>
<path d="M2523 4135 c0 -38 2 -53 4 -32 2 20 2 52 0 70 -2 17 -4 1 -4 -38z"/>
<path d="M4070 3970 c-171 -143 -216 -170 -279 -170 -28 0 -40 -4 -35 -11 5
-8 -15 -10 -69 -8 -73 4 -76 4 -80 -20 -3 -15 2 -32 15 -45 l20 -21 -7 32 c-6
29 -4 33 20 39 42 10 274 -1 287 -14 7 -7 19 -12 28 -12 21 0 170 -61 170 -70
0 -4 12 -20 28 -35 25 -25 31 -27 86 -22 32 3 62 9 65 14 3 5 20 19 38 31 18
13 46 36 62 52 34 35 57 38 64 10 8 -30 27 -24 27 9 0 69 17 94 133 197 62 55
62 65 2 78 -46 11 -89 21 -239 60 -77 20 -149 36 -160 35 -12 0 -91 -58 -176
-129z m-257 -187 c-7 -2 -21 -2 -30 0 -10 3 -4 5 12 5 17 0 24 -2 18 -5z"/>
<path d="M2478 4083 c-23 -6 -23 -25 1 -40 16 -10 20 -9 25 10 10 39 10 40
-26 30z"/>
<path d="M2490 3974 c0 -8 5 -12 10 -9 6 4 8 11 5 16 -9 14 -15 11 -15 -7z"/>
<path d="M2527 3941 c-2 -10 -1 -25 4 -32 13 -21 11 -39 -6 -39 -8 0 -15 -7
-15 -15 0 -9 6 -12 15 -9 8 4 15 10 15 15 0 5 7 9 15 9 8 0 15 -7 15 -15 0 -8
7 -15 15 -15 8 0 15 5 15 10 0 6 -4 10 -9 10 -5 0 -18 23 -30 50 -12 28 -23
50 -25 50 -2 0 -6 -9 -9 -19z"/>
<path d="M2485 3909 c-4 -6 -5 -12 -2 -15 2 -3 7 2 10 11 7 17 1 20 -8 4z"/>
<path d="M1375 3890 c3 -5 8 -10 11 -10 2 0 4 5 4 10 0 6 -5 10 -11 10 -5 0
-7 -4 -4 -10z"/>
<path d="M1420 3870 c0 -5 5 -10 10 -10 6 0 10 5 10 10 0 6 -4 10 -10 10 -5 0
-10 -4 -10 -10z"/>
<path d="M2040 3865 c0 -8 2 -15 4 -15 2 0 6 7 10 15 3 8 1 15 -4 15 -6 0 -10
-7 -10 -15z"/>
<path d="M1390 3859 c0 -19 44 -61 87 -82 27 -13 70 -15 265 -12 276 4 256 3
243 13 -5 4 -15 16 -21 27 -10 19 -23 20 -184 23 -96 1 -179 7 -185 12 -14 12
-154 10 -161 -2 -3 -5 -14 2 -24 14 -15 17 -19 19 -20 7z"/>
<path d="M2319 3831 c-18 -14 -27 -16 -40 -8 -21 13 -73 -7 -67 -26 3 -6 22
-21 44 -31 33 -16 56 -19 144 -17 135 4 220 8 243 12 21 3 22 25 1 33 -24 9
-34 7 -31 -6 1 -9 -13 -13 -48 -13 -63 0 -87 12 -74 37 16 30 1 38 -75 38 -57
0 -79 -4 -97 -19z"/>
<path d="M2610 3822 c0 -5 19 -9 43 -10 32 0 37 1 22 8 -26 11 -65 12 -65 2z"/>
<path d="M2117 3793 c-9 -9 12 -33 29 -33 23 0 16 -37 -8 -43 -12 -4 -19 -9
-15 -13 8 -8 67 15 67 27 0 5 -5 9 -11 9 -6 0 -8 7 -5 16 10 27 -37 58 -57 37z"/>
<path d="M2698 3793 c14 -3 22 -10 19 -18 -4 -9 1 -11 14 -8 10 3 19 9 19 13
0 9 -38 20 -60 19 -8 -1 -5 -4 8 -6z"/>
<path d="M2020 3781 c-22 -6 -23 -8 -7 -14 29 -11 59 -8 55 5 -5 15 -17 18
-48 9z"/>
<path d="M3566 3781 c-3 -5 1 -11 9 -15 8 -3 15 -1 15 4 0 13 -18 22 -24 11z"/>
<path d="M2077 3746 c-4 -10 -1 -13 8 -9 8 3 12 9 9 14 -7 12 -11 11 -17 -5z"/>
<path d="M2720 3730 c0 -5 18 -10 40 -10 22 0 40 5 40 10 0 6 -18 10 -40 10
-22 0 -40 -4 -40 -10z"/>
<path d="M3280 3730 c0 -5 18 -10 40 -10 22 0 40 5 40 10 0 6 -18 10 -40 10
-22 0 -40 -4 -40 -10z"/>
<path d="M3528 3705 c5 -41 19 -45 32 -9 15 37 13 44 -13 44 -20 0 -23 -4 -19
-35z"/>
<path d="M2918 3723 c23 -2 61 -2 85 0 23 2 4 4 -43 4 -47 0 -66 -2 -42 -4z"/>
<path d="M2200 3699 c-25 -3 -38 -7 -30 -8 13 -1 13 -2 0 -11 -10 -6 68 -10
229 -10 134 0 242 3 239 6 -3 3 -90 6 -192 7 -111 1 -190 6 -194 12 -4 6 -26
7 -52 4z"/>
<path d="M3580 3680 c0 -5 14 -10 30 -10 17 0 30 5 30 10 0 6 -13 10 -30 10
-16 0 -30 -4 -30 -10z"/>
<path d="M2020 3670 c0 -5 5 -10 10 -10 6 0 10 5 10 10 0 6 -4 10 -10 10 -5 0
-10 -4 -10 -10z"/>
<path d="M2085 3673 c-11 -2 -25 -14 -31 -28 -10 -20 -9 -22 5 -17 9 3 18 9
21 12 3 4 13 11 24 17 21 12 11 21 -19 16z"/>
<path d="M2778 3673 c34 -2 90 -2 125 0 34 2 6 3 -63 3 -69 0 -97 -1 -62 -3z"/>
<path d="M3118 3673 c45 -2 119 -2 165 0 45 1 8 3 -83 3 -91 0 -128 -2 -82 -3z"/>
<path d="M3458 3673 c12 -2 32 -2 45 0 12 2 2 4 -23 4 -25 0 -35 -2 -22 -4z"/>
<path d="M1965 3570 c-3 -5 -15 -10 -26 -10 -10 0 -19 -4 -19 -8 0 -16 55 -5
58 11 4 19 -3 22 -13 7z"/>
<path d="M3934 3527 c-10 -27 0 -72 16 -72 11 0 15 11 15 39 0 40 -20 61 -31
33z"/>
<path d="M1932 3500 c-10 -17 -10 -20 3 -20 8 0 15 9 15 20 0 11 -1 20 -3 20
-1 0 -8 -9 -15 -20z"/>
<path d="M1853 3430 c1 -22 5 -40 10 -40 4 0 6 4 3 9 -4 5 -2 11 3 13 11 4 2
58 -10 58 -4 0 -7 -18 -6 -40z"/>
<path d="M1922 3445 c0 -16 2 -22 5 -12 2 9 2 23 0 30 -3 6 -5 -1 -5 -18z"/>
<path d="M6863 3391 c-23 -11 -49 -31 -58 -45 -10 -14 -26 -26 -36 -26 -10 0
-39 -10 -63 -22 -36 -17 -48 -30 -61 -64 -18 -49 -14 -77 19 -113 33 -38 80
-53 124 -42 29 8 49 6 91 -8 60 -21 99 -15 160 22 63 38 90 145 53 216 -43 86
-144 122 -229 82z"/>
<path d="M1916 3253 c2 -76 3 -144 4 -151 0 -7 5 -10 10 -7 6 4 8 10 5 14 -2
5 -5 70 -6 145 0 75 -4 136 -8 136 -5 0 -7 -62 -5 -137z"/>
<path d="M4075 3360 c-38 -11 -83 -24 -100 -29 -16 -5 -56 -17 -88 -27 -43
-12 -62 -24 -71 -43 -19 -37 -56 -303 -56 -401 l0 -59 -36 -7 c-41 -8 -100
-55 -117 -93 -8 -18 -14 -163 -17 -456 l-5 -430 -35 2 c-33 3 -33 2 -10 -8 14
-5 33 -8 42 -5 10 2 42 -9 71 -25 45 -25 62 -29 135 -29 80 0 83 -1 94 -27 7
-16 21 -41 32 -57 l19 -29 -36 -29 c-31 -25 -37 -36 -37 -67 0 -26 7 -44 23
-59 22 -20 34 -22 156 -22 124 0 133 -1 138 -20 4 -16 14 -20 43 -20 36 0 38
-2 43 -38 4 -20 7 -156 8 -302 3 -366 6 -400 30 -400 11 0 29 6 42 13 12 6 23
13 25 13 2 1 3 156 2 346 l0 344 30 2 30 2 0 -344 0 -344 33 -13 c17 -7 35
-14 38 -16 13 -7 20 33 30 152 5 66 14 181 20 255 6 74 14 178 17 230 7 93 7
95 33 98 17 2 29 11 32 23 5 18 13 19 119 17 l113 -3 3 -454 c2 -462 5 -497
38 -470 12 9 14 96 14 479 0 396 2 469 14 480 8 6 16 30 18 53 l3 42 79 -3
c44 -1 81 -4 84 -6 2 -2 7 -226 10 -498 l7 -493 24 -3 c22 -3 23 -6 15 -50
-10 -54 -11 -141 -1 -165 6 -15 27 -17 180 -17 183 0 269 14 281 46 11 29 -13
42 -112 65 -63 14 -112 32 -138 50 -49 33 -63 59 -35 66 16 4 20 22 30 141 6
75 14 162 17 192 35 358 55 790 41 871 l-8 46 -112 36 c-127 41 -296 87 -344
94 -18 3 -37 11 -42 17 -6 7 -12 88 -13 187 -3 166 -4 174 -23 174 -19 0 -20
-8 -25 -170 l-5 -170 -25 2 c-14 1 -48 8 -76 14 l-51 12 -12 70 c-7 39 -15
130 -18 201 -3 72 -9 136 -13 141 -15 20 -21 151 -14 296 9 188 17 192 93 47
70 -134 116 -204 155 -232 68 -51 203 -76 584 -111 l73 -7 -3 92 -3 93 -55 3
c-30 1 -93 7 -140 13 -47 6 -109 14 -138 17 -29 4 -55 11 -58 15 -3 5 -16 9
-29 9 -43 0 -73 42 -181 255 -136 267 -127 250 -177 315 -45 58 -60 66 -182
90 -33 7 -87 18 -120 26 -33 8 -121 17 -195 19 -112 4 -147 1 -205 -15z"/>
<path d="M759 3325 c-3 -5 -6 -80 -8 -165 -3 -145 -1 -159 19 -195 47 -86 113
-130 210 -140 80 -9 1000 -11 1000 -3 0 4 14 5 30 2 37 -8 39 3 3 17 -18 7
-30 6 -37 -1 -16 -16 -25 -12 -19 11 5 18 2 20 -28 17 -34 -3 -34 -2 -37 41
-2 24 -10 54 -18 66 -8 13 -12 30 -7 41 7 18 6 18 -11 1 -10 -10 -20 -16 -22
-14 -2 2 -6 56 -8 121 -3 83 -8 122 -18 132 -7 8 -36 16 -62 19 -47 4 -51 3
-87 -35 -36 -37 -42 -40 -94 -40 -53 0 -94 16 -120 46 -16 19 -84 24 -330 23
-147 0 -232 -4 -236 -11 -4 -7 -9 -7 -13 1 -13 20 -56 13 -66 -11 -8 -21 -9
-21 -10 -3 0 16 -2 17 -10 5 -6 -10 -10 0 -12 35 -2 28 -5 46 -9 40z"/>
<path d="M1516 3311 c-4 -6 -3 -19 3 -28 9 -17 10 -17 17 0 8 21 -10 45 -20
28z"/>
<path d="M1890 3171 c0 -12 5 -21 10 -21 6 0 10 6 10 14 0 8 -4 18 -10 21 -5
3 -10 -3 -10 -14z"/>
<path d="M1943 3010 c1 -11 4 -20 8 -20 10 0 19 27 12 34 -12 12 -22 5 -20
-14z"/>
<path d="M6760 3016 c0 -9 8 -30 18 -48 14 -25 20 -64 25 -155 l7 -123 -26 -6
c-14 -4 -45 -4 -70 -1 -50 5 -58 -9 -22 -42 14 -14 24 -39 29 -79 5 -32 13
-71 19 -86 l10 -27 127 3 126 3 18 50 c31 88 29 91 -50 99 -71 7 -97 26 -63
45 20 11 8 27 -23 33 -19 3 -20 11 -20 131 0 128 0 128 -25 134 -26 7 -59 40
-60 60 0 18 -20 27 -20 9z"/>
<path d="M6928 2996 c-3 -14 -2 -26 2 -26 13 0 21 33 12 42 -6 6 -11 -1 -14
-16z"/>
<path d="M1885 2981 c-6 -11 9 -23 19 -14 9 9 7 23 -3 23 -6 0 -12 -4 -16 -9z"/>
<path d="M1940 2969 c0 -8 7 -24 15 -35 14 -17 16 -18 28 -3 9 12 18 14 37 7
l25 -9 -25 -15 c-25 -14 -25 -14 13 -12 24 1 42 -3 47 -12 8 -13 10 -13 9 0 0
20 -92 87 -97 72 -5 -17 -23 -15 -38 6 -11 14 -13 15 -14 1z"/>
<path d="M6905 2950 c-3 -5 -1 -10 4 -10 6 0 11 5 11 10 0 6 -2 10 -4 10 -3 0
-8 -4 -11 -10z"/>
<path d="M1910 2920 c0 -5 5 -10 10 -10 6 0 10 5 10 10 0 6 -4 10 -10 10 -5 0
-10 -4 -10 -10z"/>
<path d="M2134 2886 c21 -17 17 -19 -24 -16 -41 3 -10 -17 37 -24 33 -5 44 -3
51 10 8 15 70 17 662 20 359 2 655 6 658 9 3 3 -306 5 -687 5 -381 0 -697 2
-704 5 -7 4 -3 -1 7 -9z m46 -20 c0 -3 -4 -8 -10 -11 -5 -3 -10 -1 -10 4 0 6
5 11 10 11 6 0 10 -2 10 -4z"/>
<path d="M3530 2880 c0 -5 16 -10 36 -10 27 0 37 -5 41 -20 7 -25 33 -27 33
-2 0 14 -2 15 -10 2 -8 -13 -10 -12 -10 3 0 9 5 17 11 17 5 0 7 5 4 10 -3 6
-28 10 -56 10 -27 0 -49 -4 -49 -10z"/>
<path d="M2225 2850 c-4 -6 13 -10 44 -10 28 0 51 5 51 10 0 6 -20 10 -44 10
-25 0 -48 -4 -51 -10z"/>
<path d="M3530 2853 c0 -5 -30 -7 -67 -5 -38 1 -95 -1 -128 -6 -50 -7 -38 -8
78 -8 107 0 137 2 137 13 0 7 -4 13 -10 13 -5 0 -10 -3 -10 -7z"/>
<path d="M3078 2843 c23 -2 61 -2 85 0 23 2 4 4 -43 4 -47 0 -66 -2 -42 -4z"/>
<path d="M8370 2819 c0 -6 -9 -8 -20 -4 -14 4 -20 2 -20 -9 0 -18 17 -30 22
-15 2 7 12 7 33 -1 17 -7 73 -13 125 -15 106 -4 96 1 -23 10 -58 5 -84 12 -98
26 -10 10 -19 14 -19 8z"/>
<path d="M8058 2808 c11 -11 27 -13 132 -16 33 -1 60 -6 60 -12 0 -5 -6 -10
-13 -10 -14 0 -57 -44 -57 -59 0 -4 16 7 36 25 26 25 45 34 70 34 29 0 34 3
34 23 -1 21 -1 21 -15 3 -12 -16 -15 -16 -20 -4 -4 10 -23 15 -68 15 -34 1
-86 4 -116 7 -41 4 -52 3 -43 -6z"/>
<path d="M8690 2781 c0 -11 26 -22 34 -14 12 12 5 23 -14 23 -11 0 -20 -4 -20
-9z"/>
<path d="M7010 2672 c0 -14 11 -21 26 -15 21 8 17 23 -6 23 -11 0 -20 -4 -20
-8z"/>
<path d="M8182 2655 c0 -16 2 -22 5 -12 2 9 2 23 0 30 -3 6 -5 -1 -5 -18z"/>
<path d="M7908 2629 c-7 -5 -28 -6 -45 -3 l-33 6 0 -44 c0 -35 6 -50 26 -69
25 -24 29 -24 227 -26 187 -1 198 0 142 12 -33 7 -52 13 -41 14 14 1 17 6 12
24 -3 12 -6 25 -6 30 0 4 -7 7 -15 7 -9 0 -15 9 -15 25 0 14 -3 25 -7 25 -5 0
-58 2 -120 4 -61 2 -117 -1 -125 -5z"/>
<path d="M8338 2493 c7 -3 16 -2 19 1 4 3 -2 6 -13 5 -11 0 -14 -3 -6 -6z"/>
<path d="M8418 2493 c12 -2 30 -2 40 0 9 3 -1 5 -23 4 -22 0 -30 -2 -17 -4z"/>
<path d="M8638 2493 c6 -2 18 -2 25 0 6 3 1 5 -13 5 -14 0 -19 -2 -12 -5z"/>
<path d="M6877 2324 c-4 -4 -7 -368 -7 -810 0 -782 0 -804 19 -804 10 0 20 8
22 18 2 9 3 374 1 810 -2 645 -5 792 -16 792 -7 0 -16 -3 -19 -6z"/>
<path d="M8367 2043 c-4 -21 -2 -42 3 -47 7 -7 10 7 10 37 0 57 -5 60 -13 10z"/>
<path d="M7820 1984 c0 -3 6 -12 14 -20 12 -11 55 -14 220 -14 115 0 207 4
211 9 8 14 -31 24 -57 15 -30 -11 -337 -11 -341 -1 -2 8 -47 19 -47 11z"/>
<path d="M8300 1975 c-17 -21 -13 -23 45 -25 80 -3 82 -2 63 17 -14 13 -20 14
-32 3 -13 -10 -19 -10 -31 0 -8 7 -15 9 -15 4 0 -5 -4 -3 -9 4 -6 10 -10 10
-21 -3z"/>
<path d="M2670 1831 c0 -5 16 -18 35 -30 19 -11 35 -16 35 -11 0 4 -6 10 -12
13 -55 19 127 30 217 12 36 -7 38 -6 23 9 -14 13 -40 16 -157 16 -78 0 -141
-4 -141 -9z"/>
<path d="M3253 1833 c15 -2 27 -9 27 -14 0 -5 17 -9 38 -8 24 2 39 8 39 16 0
10 -18 13 -66 12 -36 -1 -54 -4 -38 -6z"/>
<path d="M3443 1833 c26 -2 67 -2 90 0 23 2 2 3 -48 3 -49 0 -68 -1 -42 -3z"/>
<path d="M2768 1808 c-7 -4 14 -5 47 -2 33 4 62 9 65 11 9 8 -100 -1 -112 -9z"/>
<path d="M2615 1800 c-4 -6 5 -10 19 -10 14 0 26 5 26 10 0 6 -9 10 -19 10
-11 0 -23 -4 -26 -10z"/>
<path d="M2516 1785 c-4 -13 -2 -14 14 -5 23 13 26 20 6 20 -8 0 -16 -7 -20
-15z"/>
<path d="M2560 1782 c0 -25 39 -57 53 -43 8 8 6 11 -6 11 -10 0 -17 8 -17 19
0 10 -7 21 -15 25 -10 3 -15 -1 -15 -12z"/>
<path d="M2620 1770 c0 -13 30 -13 50 0 11 7 7 10 -17 10 -18 0 -33 -4 -33
-10z"/>
<path d="M2498 1713 c7 -3 16 -2 19 1 4 3 -2 6 -13 5 -11 0 -14 -3 -6 -6z"/>
<path d="M2553 1695 c-9 -25 4 -29 17 -6 7 15 7 21 0 21 -6 0 -13 -7 -17 -15z"/>
<path d="M2487 1643 c-4 -3 0 -18 10 -32 11 -17 18 -59 23 -136 l7 -110 1 109
c2 127 -15 196 -41 169z"/>
<path d="M2485 1540 c3 -5 8 -10 11 -10 2 0 4 5 4 10 0 6 -5 10 -11 10 -5 0
-7 -4 -4 -10z"/>
<path d="M2487 1356 c-6 -16 2 -28 14 -20 12 7 11 34 0 34 -5 0 -11 -6 -14
-14z"/>
<path d="M661 1318 c-1 -20 4 -40 9 -43 12 -7 12 19 0 55 -7 22 -8 21 -9 -12z"/>
<path d="M2520 1325 c0 -8 5 -15 10 -15 6 0 10 7 10 15 0 8 -4 15 -10 15 -5 0
-10 -7 -10 -15z"/>
<path d="M2482 1268 c2 -13 13 -27 26 -33 12 -5 22 -13 22 -18 0 -4 4 -6 9 -2
13 7 -30 74 -47 75 -8 0 -12 -9 -10 -22z"/>
<path d="M2550 1276 c0 -8 4 -17 9 -20 5 -4 7 3 4 14 -6 23 -13 26 -13 6z"/>
<path d="M681 1245 c0 -11 6 -31 13 -44 13 -23 13 -23 19 -2 4 15 13 21 33 21
21 0 25 -3 16 -12 -9 -9 -7 -14 6 -24 9 -7 14 -16 9 -20 -4 -4 -13 -2 -19 4
-15 15 -38 16 -38 2 0 -19 76 -58 126 -64 63 -9 1754 -16 1754 -7 -1 20 -19
32 -43 25 -24 -5 -27 -3 -27 20 0 29 14 34 28 9 11 -19 44 -11 37 10 -3 7 -19
18 -35 24 -26 10 -32 9 -41 -9 -10 -18 -12 -18 -28 -4 -12 11 -37 16 -77 16
-32 0 -66 5 -74 10 -8 5 -10 10 -5 10 6 0 3 5 -5 10 -23 15 -130 13 -130 -3 0
-10 -138 -12 -675 -9 -447 2 -675 0 -675 -7 0 -5 8 -14 18 -20 12 -7 4 -8 -28
-4 -53 7 -58 9 -42 25 19 19 15 23 -38 26 -36 2 -50 -1 -51 -10 0 -7 -7 1 -14
17 -11 23 -14 25 -14 10z m1829 -114 c0 -20 -13 -35 -23 -25 -7 8 4 44 14 44
5 0 9 -9 9 -19z"/>
<path d="M2581 1225 c7 -36 119 -97 119 -65 0 6 -11 10 -25 10 -14 0 -25 5
-25 10 0 6 -5 10 -10 10 -6 0 -22 12 -37 28 -21 22 -25 24 -22 7z"/>
<path d="M7554 1161 c-2 -2 -4 -13 -4 -23 0 -17 23 -18 553 -18 522 0 554 -1
583 -19 45 -28 64 -76 64 -166 0 -93 -24 -145 -79 -172 -33 -17 -78 -18 -579
-18 -535 0 -542 0 -542 -20 0 -20 6 -20 542 -18 711 3 1202 13 1163 25 -16 4
-40 6 -52 3 -12 -3 -25 -1 -28 5 -4 6 5 10 19 10 14 0 26 5 26 10 0 6 -13 10
-30 10 -23 0 -30 4 -30 20 0 11 -4 20 -10 20 -5 0 -10 9 -10 20 0 11 5 20 10
20 6 0 10 -4 10 -10 0 -5 5 -10 10 -10 6 0 10 46 10 119 0 109 2 121 20 134
18 13 19 15 5 21 -23 8 -27 8 -20 -3 8 -15 -15 -25 -28 -12 -14 14 19 40 53
41 14 0 32 5 40 10 11 7 4 10 -25 10 -23 0 -46 -5 -52 -11 -7 -7 -17 -8 -29
-1 -31 16 -1574 38 -1590 23z m1271 -99 c-3 -3 -11 0 -18 7 -9 10 -8 11 6 5
10 -3 15 -9 12 -12z"/>
<path d="M2750 1140 c0 -5 -7 -10 -15 -10 -8 0 -15 -5 -15 -10 0 -7 8 -6 23 2
12 7 67 15 122 19 l100 6 -107 1 c-67 1 -108 -2 -108 -8z"/>
<path d="M3078 1143 c23 -2 61 -2 85 0 23 2 4 4 -43 4 -47 0 -66 -2 -42 -4z"/>
<path d="M3851 1137 c17 -17 61 -20 71 -5 5 9 8 8 8 -4 0 -21 11 -23 28 -6 23
23 12 28 -53 28 -54 0 -64 -2 -54 -13z"/>
<path d="M3990 1136 c0 -10 15 -15 51 -18 28 -1 53 0 56 5 2 4 12 3 22 -3 22
-11 32 -4 24 17 -5 12 -7 12 -14 1 -5 -8 -9 -8 -9 -2 0 7 -25 12 -65 13 -50 1
-65 -2 -65 -13z"/>
<path d="M2883 1122 c-62 -2 -83 -6 -87 -18 -5 -14 9 -16 121 -14 71 2 271 5
446 8 229 3 317 8 314 16 -4 12 -308 17 -317 4 -8 -10 -147 -17 -157 -7 -9 8
-200 15 -320 11z"/>
<path d="M2640 1110 c0 -5 7 -10 15 -10 8 0 15 5 15 10 0 6 -7 10 -15 10 -8 0
-15 -4 -15 -10z"/>
<path d="M4328 613 c-10 -2 -18 -14 -18 -26 0 -12 -7 -54 -15 -92 -29 -137
-21 -147 109 -143 l91 3 0 31 c0 18 8 41 18 51 25 29 21 43 -24 93 -23 25 -48
55 -56 68 -15 22 -57 28 -105 15z"/>
<path d="M4872 443 c2 -30 7 -38 23 -38 24 0 33 38 15 61 -24 28 -41 17 -38
-23z"/>
<path d="M4580 463 c0 -6 9 -18 21 -29 13 -12 19 -27 16 -42 -5 -28 13 -38 42
-22 28 15 27 55 -1 74 -30 19 -78 31 -78 19z"/>
</g>
</svg>
